<svg xmlns="http://www.w3.org/2000/svg" viewBox="0 0 128 128">
<defs>
  <linearGradient id="g" x1="0" y1="0" x2="1" y2="1">
    <stop offset="0" stop-color="#8a5b12"/>
    <stop offset=".34" stop-color="#f7d889"/>
    <stop offset=".6" stop-color="#d4af37"/>
    <stop offset="1" stop-color="#7a4e0d"/>
  </linearGradient>
</defs>
<rect width="128" height="128" rx="24" fill="#090909"/>
<path fill="url(#g)" d="M64 11 72 38 64 57 56 38zM31 24l13 23-6 23-16-13 9-33zm66 0-13 23 6 23 16-13-9-33z"/>
<path fill="url(#g)" d="M64 25 82 60 74 79 64 113 54 79 46 60z"/>
<path fill="url(#g)" d="M43 46 25 65l10 25 20-8-8-15 8-16zm42 0 18 19-10 25-20-8 8-15-8-16z"/>
<path fill="#090909" d="m32 64 10 4-10 7zm64 0-10 4 10 7z"/>
<path fill="none" stroke="#ffd480" stroke-width="2" d="M64 14v94M31 27l13 22M97 27 84 49"/>
</svg>